<?xml version="1.0" encoding="iso-8859-1"?>
<!-- Generator: Adobe Illustrator 19.0.0, SVG Export Plug-In . SVG Version: 6.00 Build 0)  -->
<svg version="1.1" id="Capa_1" xmlns="http://www.w3.org/2000/svg" xmlns:xlink="http://www.w3.org/1999/xlink" x="0px" y="0px"
	 viewBox="0 0 512 512" style="enable-background:new 0 0 512 512;" xml:space="preserve">
<path style="fill:#FFC473;" d="M512,256c0,68.38-26.63,132.67-74.98,181.02c-47.69,47.69-110.89,74.25-178.23,74.96
	C257.86,512,256.93,512,256,512c-68.38,0-132.67-26.63-181.02-74.98S0,324.38,0,256S26.63,123.33,74.98,74.98S187.62,0,256,0
	c0.93,0,1.86,0,2.79,0.02c67.34,0.71,130.54,27.27,178.23,74.96C485.37,123.33,512,187.62,512,256z"/>
<path style="fill:#FFB74F;" d="M512,256c0,68.38-26.63,132.67-74.98,181.02c-47.69,47.69-110.89,74.25-178.23,74.96V0.02
	c67.34,0.71,130.54,27.27,178.23,74.96C485.37,123.33,512,187.62,512,256z"/>
<path style="fill:#FF9A00;" d="M443.92,256c0,102.86-82.63,186.41-185.13,187.89c-0.93,0.02-1.86,0.03-2.79,0.03
	c-103.79,0-187.92-84.13-187.92-187.92S152.21,68.08,256,68.08c0.93,0,1.86,0.01,2.79,0.03C361.29,69.59,443.92,153.14,443.92,256z"
	/>
<path style="fill:#E47500;" d="M443.92,256c0,102.86-82.63,186.41-185.13,187.89V68.11C361.29,69.59,443.92,153.14,443.92,256z"/>
<path style="fill:#FFDF8E;" d="M317.97,256c12.26-11.19,20.03-27.66,20.03-46c0-33.63-26.09-61-58.16-61h-7.98v-23.57h-30V149
	h-62.28v30h22.6v154h-22.6v30h62.28v23.57h30V363h7.98c32.07,0,58.16-27.37,58.16-61C338,283.66,330.23,267.19,317.97,256z
	 M279.84,333h-47.66v-62h47.66c15.53,0,28.16,13.91,28.16,31S295.37,333,279.84,333z M279.84,241h-47.66v-62h47.66
	c15.53,0,28.16,13.91,28.16,31S295.37,241,279.84,241z"/>
<path style="fill:#FFC473;" d="M338,302c0,33.63-26.09,61-58.16,61h-7.98v23.57h-13.07V333h21.05c15.53,0,28.16-13.91,28.16-31
	s-12.63-31-28.16-31h-21.05v-30h21.05c15.53,0,28.16-13.91,28.16-31s-12.63-31-28.16-31h-21.05v-53.57h13.07V149h7.98
	c32.07,0,58.16,27.37,58.16,61c0,18.34-7.77,34.81-20.03,46C330.23,267.19,338,283.66,338,302z"/>
<g>
</g>
<g>
</g>
<g>
</g>
<g>
</g>
<g>
</g>
<g>
</g>
<g>
</g>
<g>
</g>
<g>
</g>
<g>
</g>
<g>
</g>
<g>
</g>
<g>
</g>
<g>
</g>
<g>
</g>
</svg>
